With: Denzel Washington, Sanaa Lathan and Eva Mendes

Matt Whitlock, the police chief of Banyan Key a small town near Florida, is separated from his wife, Alex, a police detective based in Florida. Matt's been having an affair with Ann Merai Harrison, a woman who's separated from her husband Chris and who says that she has cancer. When her doctor tells her of a new treatment that's expensive, Matt gives her the nearly half a million dollars that he seized from some drug dealers. When she turns up dead evidence points to Whitlock. He tries to figure out what's going on but apparently it appears he's been set up. So he has to try and find the money especially now that the Feds are asking for it before the evidence exposes him.

General:

Complete name                    : Out Of Time\Out Of Time.avi
Format                           : AVI
Format/Info                      : Audio Video Interleave
File size                        : 1.47 GiB
Duration                         : 1h 41mn
Overall bit rate                 : 2 080 Kbps

Video:

Format                           : MPEG-4 Visual
Format profile                   : Simple@L3
Format settings, BVOP            : No
Format settings, QPel            : No
Format settings, GMC             : No warppoints
Format settings, Matrix          : Default (H.263)
Codec ID                         : XVID
Codec ID/Hint                    : XviD
Duration                         : 1h 41mn
Bit rate                         : 1 621 Kbps
Width                            : 720 pixels
Height                           : 304 pixels
Display aspect ratio             : 2.35:1
Frame rate                       : 25.000 fps
Color space                      : YUV
Chroma subsampling               : 4:2:0
Bit depth                        : 8 bits
Scan type                        : Progressive
Bits/(Pixel*Frame)               : 0.296
Stream size                      : 1.14 GiB (78%)
Writing library                  : XviD 1.1.2 (UTC 2006-11-01)

Audio:

Format                           : AC-3
Format/Info                      : Audio Coding 3
Mode extension                   : CM (complete main)
Codec ID                         : 2000
Duration                         : 1h 41mn
Bit rate mode                    : Constant
Bit rate                         : 448 Kbps
Channel(s)                       : 6 channels
Channel positions                : Front: L C R, Side: L R, LFE
Sampling rate                    : 48.0 KHz
Bit depth                        : 16 bits
Stream size                      : 324 MiB (22%)
Alignment                        : Aligned on interleaves
Interleave, duration             : 32 ms (0.80 video frame)
Interleave, preload duration     : 256 ms
